<!-- icon666.com - MILLIONS OF FREE VECTOR ICONS --><svg version="1.1" id="Capa_1" xmlns="http://www.w3.org/2000/svg" xmlns:xlink="http://www.w3.org/1999/xlink" x="0px" y="0px" viewBox="0 0 512.001 512.001" style="enable-background:new 0 0 512.001 512.001;" xml:space="preserve"><g><g><path d="M507.607,89.245L422.753,4.394c-5.857-5.858-15.355-5.858-21.213,0L68.247,337.688c-0.012,0.011-0.023,0.024-0.035,0.035 c-0.084,0.1-2.091,1.918-3.359,4.877l-0.099,0.23c-0.007,0.016-0.014,0.032-0.021,0.049 c-8.943,20.868-54.479,127.118-63.52,148.213c-2.416,5.638-1.157,12.178,3.181,16.516c4.352,4.352,10.897,5.589,16.515,3.18 c35.7-15.3,113.03-48.441,148.493-63.64l-0.003-0.007c1.706-0.73,3.308-1.781,4.7-3.174 c12.221-12.221,302.565-302.565,333.508-333.508c2.813-2.813,4.394-6.628,4.394-10.607S510.42,92.058,507.607,89.245z M43.558,468.441L57.419,436.1c3.875,2.074,7.456,4.709,10.613,7.866c3.158,3.158,5.793,6.739,7.867,10.614L43.558,468.441z M147.999,423.681l-44.458,19.053c-3.611-7.351-8.42-14.103-14.296-19.98c-5.877-5.876-12.629-10.685-19.98-14.296l19.054-44.458 h17.68v27c0,8.284,6.716,15,15,15h27V423.681z M177.999,397.641v-6.64c0-8.284-6.716-15-15-15h-27v-27c0-8.284-6.716-15-15-15 h-6.64l212.934-212.934l63.639,63.64L177.999,397.641z M412.146,163.494l-63.64-63.64l21.213-21.213l63.64,63.64L412.146,163.494z M454.573,121.067l-63.64-63.64l21.213-21.213l63.64,63.64L454.573,121.067z"></path></g></g></svg>