<svg width="23" height="23" viewBox="0 0 23 23" fill="none" xmlns="http://www.w3.org/2000/svg">
<g clip-path="url(#clip0_2_19)">
<path d="M13.6877 0.489647C8.81367 0.489647 4.86503 4.43828 4.86503 9.3123C4.86503 11.4191 5.60175 13.3508 6.83261 14.8691L0.768158 20.9336C0.408783 21.293 0.408783 21.8725 0.768158 22.2318C1.12753 22.5912 1.70703 22.5912 2.0664 22.2318L8.13085 16.1674C9.64921 17.3982 11.5809 18.135 13.6877 18.135C18.5617 18.135 22.5103 14.1863 22.5103 9.3123C22.5103 4.43828 18.5572 0.489647 13.6877 0.489647ZM13.6877 16.3021C9.8289 16.3021 6.69785 13.1711 6.69785 9.3123C6.69785 5.45351 9.8289 2.32246 13.6877 2.32246C17.5465 2.32246 20.6775 5.45351 20.6775 9.3123C20.6775 13.1711 17.5465 16.3021 13.6877 16.3021Z" fill="white"/>
</g>
<defs>
<clipPath id="clip0_2_19">
<rect width="23" height="23" fill="white"/>
</clipPath>
</defs>
</svg>
